<?xml version="1.0" encoding="UTF-8"?>
<svg width="100px" height="100px" viewBox="0 0 100 100" version="1.1" xmlns="http://www.w3.org/2000/svg" xmlns:xlink="http://www.w3.org/1999/xlink">
    <defs></defs>
    <g id="Page-1" stroke="none" stroke-width="1" fill="none" fill-rule="evenodd">
        <g id="icon-mask">
            <circle id="Oval" fill="#000000" cx="50" cy="50" r="50"></circle>
            <g id="Cloudflare_logo" transform="translate(10.000000, 14.000000)" fill-rule="nonzero" fill="#FFFFFF">
                <path d="M54.8145522,34.2664237 C55.3080192,32.6172845 55.1435298,30.9681453 54.3210839,29.9786618 C53.4986393,28.9891783 52.3472145,28.3295226 50.8668122,28.1646087 L22.2456996,27.8347809 C22.0812106,27.8347809 21.9167214,27.669867 21.7522322,27.669867 C21.5877431,27.504953 21.5877431,27.3400391 21.7522322,27.1751253 C21.9167214,26.8452974 22.0812106,26.6803834 22.4101888,26.6803834 L51.195791,26.3505557 C54.6500628,26.1856417 58.2688239,23.3821051 59.5847369,20.0838267 L61.2296286,15.7960648 C61.2296286,15.631151 61.3941181,15.4662371 61.2296286,15.3013231 C59.4202487,6.8907133 51.8537475,0.623984408 42.9713334,0.623984408 C34.7468753,0.623984408 27.6738418,5.90122979 25.2065045,13.3223561 C23.5616129,12.1679587 21.5877431,11.508303 19.2848949,11.6732169 C15.3371553,12.0030448 12.2118614,15.3013231 11.7183939,19.2592571 C11.5539047,20.2487407 11.7183939,21.2382242 11.8828831,22.2277077 C5.46780614,22.3926215 0.204153206,27.669867 0.204153206,34.2664237 C0.204153206,34.9260793 0.204153206,35.4208212 0.368642383,36.0804768 C0.368642383,36.4103046 0.697620738,36.5752185 0.862109792,36.5752185 L53.6631275,36.5752185 C53.9921063,36.5752185 54.3210839,36.4103046 54.3210839,36.0804768 L54.8145522,34.2664237 L54.8145522,34.2664237 Z" id="Shape"></path>
                <path d="M63.8614557,15.7960648 L63.0390098,15.7960648 C62.8745204,15.7960648 62.710031,15.9609788 62.5455416,16.1258927 L61.3941181,20.0838267 C60.900651,21.7329659 61.0651392,23.3821051 61.8875851,24.3715886 C62.710031,25.3610721 63.8614557,26.0207278 65.3418581,26.1856417 L71.4279569,26.5154695 C71.5924451,26.5154695 71.7569345,26.6803834 71.9214239,26.6803834 C72.0859134,26.8452974 72.0859134,27.0102113 71.9214239,27.1751253 C71.7569345,27.504953 71.5924451,27.669867 71.2634675,27.669867 L65.0128792,27.9996949 C61.5586075,28.1646087 57.9398463,30.9681453 56.6239322,34.2664237 L56.2949546,35.7506489 C56.1304651,35.9155629 56.2949546,36.2453908 56.6239322,36.2453908 L78.3365004,36.2453908 C78.6654792,36.2453908 78.8299687,36.0804768 78.8299687,35.7506489 C79.1589463,34.4313376 79.4879251,32.9471124 79.4879251,31.462887 C79.4879251,22.8873634 72.414891,15.7960648 63.8614557,15.7960648" id="Shape"></path>
            </g>
            <text id="CB" font-family="HelveticaNeue-ThinItalic, Helvetica Neue" font-size="31" font-style="italic" font-weight="300" fill="#FFFFFF">
                <tspan x="29" y="84">CB</tspan>
            </text>
        </g>
    </g>
</svg>